<svg data-v-fde0c5aa="" xmlns="http://www.w3.org/2000/svg" viewBox="0 0 300 300" class="iconLeftSlogan"><!----><defs data-v-fde0c5aa=""><!----></defs><rect data-v-fde0c5aa="" fill="#EFEEEB" x="0" y="0" width="300px" height="300px" class="logo-background-square"></rect><defs data-v-fde0c5aa=""><!----></defs><g data-v-fde0c5aa="" id="a7b12981-2c53-47cc-aa98-8fe89692382a" fill="#1F1E1A" transform="matrix(2.3353109807404095,0,0,2.3353109807404095,105.16886705516595,121.25912915684562)"><path d="M7.95 13.34L8.78 13.34L8.78 3.08L7.71 3.08L7.71 10.71L2.76 3.08L1.02 3.08C1.04 3.16 1.22 3.98 1.22 4.00L1.22 13.27L2.28 13.27L2.28 4.66ZM12.59 3.98C12.59 3.51 12.19 3.12 11.73 3.12C11.27 3.12 10.89 3.51 10.89 3.98C10.89 4.44 11.27 4.83 11.73 4.83C12.21 4.83 12.59 4.45 12.59 3.98ZM11.17 13.27L12.33 13.27L12.33 6.31L11.00 6.31C11.02 6.40 11.17 7.11 11.17 7.14ZM19.57 12.75L19.04 11.87C18.45 12.28 18.07 12.49 17.35 12.49C15.93 12.49 15.37 10.84 15.37 9.67C15.37 8.57 15.95 7.06 17.28 7.06C17.96 7.06 18.33 7.22 18.84 7.67L19.47 6.86C18.94 6.45 18.13 6.15 17.46 6.15C15.33 6.15 14.13 7.77 14.13 9.80C14.13 11.59 15.33 13.45 17.28 13.45C18.26 13.45 18.75 13.26 19.57 12.75ZM24.23 13.27L29.82 13.27L29.82 12.31L25.54 12.31L25.54 3.08L24.04 3.08C24.05 3.16 24.23 3.98 24.23 4.00ZM36.43 12.67L35.91 11.83C35.45 12.22 34.71 12.47 34.10 12.47C32.73 12.47 32.07 11.02 32.07 9.83L32.07 9.69L35.85 9.69C36.41 9.69 36.57 9.28 36.57 8.79C36.57 7.17 35.48 6.15 33.87 6.15C31.82 6.15 30.84 8.05 30.84 9.87C30.84 11.86 31.99 13.45 34.08 13.45C34.92 13.45 35.77 13.20 36.43 12.67ZM35.08 8.82L32.16 8.82C32.31 7.95 33.03 7.03 33.98 7.03C34.83 7.03 35.32 7.73 35.32 8.53C35.32 8.74 35.31 8.82 35.08 8.82ZM42.98 13.40L44.21 13.24C43.90 12.73 43.78 11.86 43.78 11.27L43.78 2.60L42.43 2.60L42.63 3.43L42.63 6.78C42.15 6.34 41.51 6.16 40.88 6.16C38.78 6.16 37.77 7.95 37.77 9.86C37.77 11.61 38.70 13.45 40.66 13.45C41.45 13.45 42.22 13.08 42.71 12.45C42.76 12.77 42.84 13.09 42.98 13.40ZM42.63 9.16L42.63 11.51C42.22 11.97 41.65 12.43 41.01 12.43C39.52 12.43 39.00 11.05 39.00 9.77C39.00 8.54 39.44 7.11 40.91 7.11C42.13 7.11 42.63 8.05 42.63 9.16ZM48.71 13.45C50.78 13.45 51.86 11.70 51.86 9.80C51.86 7.90 50.78 6.15 48.71 6.15C46.68 6.15 45.57 7.92 45.57 9.80C45.57 11.69 46.65 13.45 48.71 13.45ZM48.71 12.57C47.35 12.57 46.80 10.91 46.80 9.80C46.80 8.61 47.26 7.03 48.71 7.03C50.13 7.03 50.62 8.62 50.62 9.80C50.62 10.99 50.16 12.57 48.71 12.57ZM60.17 12.98L59.93 12.25C59.86 12.28 59.30 12.45 59.28 12.45C59.01 12.45 58.97 12.25 58.97 11.91L58.97 6.31L57.62 6.31C57.64 6.38 57.81 7.11 57.81 7.14L57.81 10.64C57.81 11.70 56.92 12.42 55.90 12.42C54.84 12.42 54.74 11.42 54.74 10.60L54.74 6.31L53.40 6.31C53.41 6.38 53.58 7.11 53.58 7.14L53.58 10.98C53.58 12.42 54.17 13.45 55.71 13.45C56.50 13.45 57.30 13.01 57.85 12.45C57.93 12.98 58.25 13.40 58.83 13.40C59.28 13.40 59.77 13.13 60.17 12.98ZM64.97 13.29L66.30 13.29L63.94 9.59L66.09 6.31L64.96 6.31L63.35 8.72L61.82 6.31L60.49 6.31L62.66 9.72L60.34 13.29L61.49 13.29L63.25 10.58Z"></path></g><defs data-v-fde0c5aa=""><linearGradient data-v-fde0c5aa="" gradientTransform="rotate(25)" id="c5a17b43-bb07-4320-aeeb-ef0f34fe7318" x1="0%" y1="0%" x2="100%" y2="0%"><stop data-v-fde0c5aa="" offset="0%" stop-color="#0978A6" stop-opacity="1"></stop><stop data-v-fde0c5aa="" offset="100%" stop-color="#FB9447" stop-opacity="1"></stop></linearGradient></defs><g data-v-fde0c5aa="" id="42ebef50-21b9-4972-aed9-ca9609d12b51" stroke="none" fill="url(#c5a17b43-bb07-4320-aeeb-ef0f34fe7318)" transform="matrix(1.7047151315930824,0,0,1.7047151315930824,40,122.72455789451068)"><path d="M16 32c8.837 0 16-7.163 16-16S24.837 0 16 0 0 7.163 0 16s7.163 16 16 16zM8.858 6.858h2v14.283h14.283v2H8.858V6.858z"></path></g><defs data-v-fde0c5aa=""><!----></defs><g data-v-fde0c5aa="" id="6d44ce80-24cc-45ed-855e-b234cac0be96" fill="#1F1E1A" transform="matrix(0.5778746719223994,0,0,0.5778746719223994,107.08858446655192,160.4789175314002)"><path d="M6.43 9.91C6.29 9.65 6.09 9.39 5.85 9.21C5.61 9.03 5.36 8.88 5.07 8.75C4.77 8.62 4.45 8.51 4.14 8.41C3.84 8.32 3.53 8.20 3.23 8.11C2.94 7.99 2.67 7.87 2.44 7.71C2.20 7.56 2.02 7.38 1.88 7.15C1.74 6.93 1.65 6.65 1.65 6.31C1.65 6.06 1.71 5.82 1.81 5.59C1.90 5.35 2.04 5.15 2.23 4.97C2.41 4.79 2.63 4.65 2.91 4.55C3.19 4.45 3.50 4.40 3.86 4.40C4.54 4.40 5.15 4.51 5.71 4.75C5.75 5.54 5.78 5.99 5.78 6.06C5.80 6.29 5.88 6.41 6.08 6.41L6.41 6.41L6.41 4.38C5.53 4.00 4.69 3.81 3.86 3.81C3.40 3.81 3.00 3.88 2.63 4.02C2.27 4.16 1.97 4.34 1.74 4.58C1.50 4.82 1.30 5.08 1.18 5.39C1.05 5.70 0.99 6.02 0.99 6.36C0.99 6.78 1.06 7.14 1.20 7.42C1.34 7.70 1.54 7.92 1.78 8.12C2.02 8.32 2.27 8.46 2.56 8.58C2.86 8.71 3.18 8.82 3.49 8.92C3.79 9.02 4.09 9.11 4.40 9.21C4.69 9.31 4.96 9.45 5.19 9.60C5.43 9.76 5.61 9.94 5.75 10.16C5.89 10.39 5.96 10.68 5.96 11.03C5.96 11.35 5.91 11.66 5.80 11.94C5.68 12.22 5.53 12.46 5.32 12.67C5.11 12.88 4.84 13.05 4.54 13.16C4.23 13.29 3.88 13.33 3.49 13.33C2.70 13.33 2.04 13.20 1.51 12.95C1.50 12.75 1.50 12.54 1.48 12.32C1.47 12.10 1.47 11.91 1.46 11.76C1.44 11.61 1.44 11.52 1.44 11.51C1.43 11.28 1.33 11.17 1.13 11.17L0.80 11.17L0.80 13.02L0.80 13.20L0.80 13.38C1.65 13.75 2.53 13.93 3.46 13.93C3.96 13.93 4.41 13.85 4.80 13.69C5.19 13.54 5.53 13.31 5.80 13.05C6.06 12.78 6.29 12.46 6.43 12.10C6.57 11.73 6.64 11.34 6.64 10.92C6.64 10.51 6.57 10.18 6.43 9.91ZM24.16 8.86C24.16 8.11 24.04 7.41 23.81 6.79C23.59 6.17 23.27 5.64 22.85 5.19C22.43 4.75 21.94 4.40 21.36 4.16C20.79 3.92 20.13 3.79 19.43 3.79C18.73 3.79 18.10 3.92 17.53 4.16C16.95 4.40 16.45 4.75 16.03 5.19C15.61 5.64 15.29 6.17 15.06 6.79C14.84 7.41 14.71 8.11 14.71 8.86C14.71 9.63 14.84 10.33 15.06 10.95C15.29 11.56 15.61 12.10 16.03 12.54C16.45 12.99 16.95 13.33 17.53 13.57C18.10 13.80 18.73 13.93 19.43 13.93C20.13 13.93 20.79 13.80 21.36 13.57C21.94 13.33 22.43 12.99 22.85 12.54C23.27 12.10 23.59 11.56 23.81 10.95C24.04 10.33 24.16 9.63 24.16 8.86ZM23.41 8.86C23.41 9.56 23.32 10.18 23.13 10.72C22.93 11.27 22.67 11.75 22.32 12.12C21.97 12.50 21.55 12.81 21.06 13.01C20.57 13.20 20.03 13.30 19.43 13.30C18.84 13.30 18.31 13.20 17.82 13.01C17.33 12.81 16.91 12.50 16.56 12.12C16.21 11.75 15.93 11.27 15.74 10.72C15.54 10.18 15.46 9.56 15.46 8.86C15.46 8.18 15.54 7.55 15.74 7.00C15.93 6.45 16.21 5.98 16.56 5.60C16.91 5.22 17.33 4.91 17.82 4.72C18.31 4.52 18.84 4.41 19.43 4.41C20.03 4.41 20.57 4.52 21.06 4.72C21.55 4.91 21.97 5.22 22.32 5.60C22.67 5.98 22.93 6.45 23.13 7.00C23.32 7.55 23.41 8.18 23.41 8.86ZM39.56 3.92L39.21 3.92L33.63 3.92L32.44 3.92L32.44 4.19C32.44 4.34 32.54 4.42 32.72 4.44L32.86 4.44C32.93 4.44 33.03 4.45 33.17 4.45C33.31 4.45 33.46 4.47 33.63 4.47L33.63 13.26C33.46 13.26 33.31 13.27 33.17 13.27C33.03 13.27 32.93 13.29 32.86 13.29L32.72 13.29C32.54 13.30 32.44 13.38 32.44 13.54L32.44 13.82L33.63 13.82L34.34 13.82L35.52 13.82L35.52 13.54C35.52 13.38 35.43 13.30 35.25 13.29L35.11 13.29C35.04 13.29 34.94 13.27 34.80 13.27C34.66 13.27 34.51 13.26 34.34 13.26L34.34 9.27L38.04 9.27L38.04 8.67L34.34 8.67L34.34 4.51L38.95 4.51C38.98 5.18 39.00 5.56 39.00 5.63C39.02 5.85 39.12 5.96 39.31 5.96L39.65 5.96L39.65 3.92ZM55.50 3.92L55.30 3.92L48.01 3.92L47.80 3.92L47.70 3.92L47.70 5.96L48.05 5.96C48.24 5.96 48.33 5.85 48.34 5.63C48.34 5.53 48.37 5.17 48.40 4.52L51.30 4.52L51.30 13.26C51.13 13.26 50.99 13.27 50.85 13.27C50.71 13.27 50.60 13.29 50.53 13.29L50.40 13.29C50.22 13.30 50.12 13.38 50.12 13.54L50.12 13.82L51.30 13.82L52.01 13.82L53.20 13.82L53.20 13.54C53.20 13.38 53.10 13.30 52.92 13.29L52.78 13.29C52.71 13.29 52.61 13.27 52.47 13.27C52.33 13.27 52.18 13.26 52.01 13.26L52.01 4.52L54.89 4.52C54.94 5.24 54.95 5.60 54.95 5.63C54.96 5.85 55.06 5.96 55.26 5.96L55.59 5.96L55.59 3.92ZM77.50 3.92L76.96 3.92L76.92 3.92L75.45 3.92L75.45 4.19C75.45 4.34 75.53 4.42 75.71 4.44L75.84 4.44C75.89 4.44 75.99 4.45 76.13 4.45C76.27 4.45 76.41 4.47 76.58 4.47L74.20 12.24C74.17 12.33 74.14 12.43 74.13 12.54C74.12 12.66 74.09 12.75 74.06 12.87C74.03 12.75 74.02 12.63 73.99 12.53L73.91 12.24L71.11 4.10C71.08 4.05 71.05 3.99 71.01 3.96C70.97 3.93 70.91 3.92 70.84 3.92L70.64 3.92C70.57 3.92 70.52 3.93 70.48 3.98C70.43 4.02 70.39 4.05 70.38 4.10L67.58 12.25C67.55 12.35 67.52 12.43 67.49 12.54C67.47 12.64 67.45 12.75 67.42 12.88C67.41 12.78 67.38 12.67 67.35 12.54C67.34 12.43 67.31 12.33 67.28 12.24L64.90 4.47C65.07 4.47 65.21 4.45 65.34 4.45C65.46 4.45 65.55 4.44 65.60 4.44L65.72 4.44C65.90 4.42 66.00 4.34 66.00 4.19L66.00 3.92L64.53 3.92L63.94 3.92L63.34 3.92L63.34 4.19C63.34 4.34 63.43 4.42 63.62 4.44L63.71 4.44C63.76 4.44 63.80 4.45 63.87 4.45C63.94 4.45 64.02 4.47 64.11 4.47L67.06 13.82L67.69 13.82L70.63 5.22C70.67 5.11 70.70 5.00 70.73 4.87C70.76 5.00 70.78 5.11 70.83 5.22L73.75 13.82L74.40 13.82L77.34 4.47C77.42 4.47 77.49 4.45 77.56 4.45C77.63 4.45 77.69 4.44 77.73 4.44L77.83 4.44C78.01 4.42 78.09 4.34 78.09 4.19L78.09 3.92ZM93.90 13.22L93.44 13.17L89.66 3.91L88.94 3.91L85.15 13.17L84.70 13.22C84.52 13.23 84.43 13.33 84.43 13.50L84.43 13.82L84.88 13.82L85.18 13.82L85.43 13.82L85.53 13.82L86.84 13.82L86.84 13.50C86.84 13.31 86.73 13.23 86.52 13.22C86.51 13.22 86.48 13.20 86.44 13.20C86.39 13.20 86.34 13.19 86.24 13.19C86.14 13.19 86.02 13.19 85.88 13.17L86.86 10.75L86.93 10.57L91.66 10.57L91.73 10.75L92.71 13.17C92.57 13.19 92.46 13.19 92.36 13.19C92.26 13.19 92.19 13.20 92.15 13.20C92.11 13.20 92.08 13.22 92.06 13.22C91.85 13.23 91.74 13.31 91.74 13.50L91.74 13.82L93.06 13.82L93.16 13.82L93.42 13.82L93.70 13.82L94.16 13.82L94.16 13.50C94.16 13.33 94.08 13.23 93.90 13.22ZM89.10 5.22C89.12 5.14 89.17 5.04 89.19 4.94C89.22 4.84 89.26 4.75 89.29 4.63C89.32 4.75 89.36 4.84 89.39 4.94C89.42 5.04 89.46 5.12 89.49 5.21L91.45 10.04L87.15 10.04ZM110.39 13.29L110.29 13.29L110.11 13.29C110.03 13.29 109.94 13.27 109.86 13.27L106.89 9.53C106.81 9.42 106.69 9.32 106.58 9.25C107.02 9.21 107.41 9.11 107.76 8.96C108.11 8.81 108.39 8.61 108.64 8.37C108.88 8.13 109.07 7.85 109.20 7.55C109.33 7.24 109.40 6.89 109.40 6.51C109.40 5.66 109.12 5.03 108.56 4.58C108.00 4.14 107.14 3.92 105.99 3.92L103.59 3.92L102.41 3.92L102.41 4.19C102.41 4.34 102.49 4.42 102.68 4.44L102.82 4.44C102.89 4.44 102.98 4.45 103.12 4.45C103.26 4.45 103.42 4.47 103.59 4.47L103.59 13.26C103.42 13.26 103.26 13.27 103.12 13.27C102.98 13.27 102.89 13.29 102.82 13.29L102.68 13.29C102.49 13.30 102.40 13.38 102.40 13.54L102.40 13.82L103.59 13.82L104.30 13.82L105.48 13.82L105.48 13.54C105.48 13.38 105.38 13.30 105.20 13.29L105.06 13.29C104.99 13.29 104.89 13.27 104.75 13.27C104.61 13.27 104.47 13.26 104.30 13.26L104.30 9.34L105.48 9.34C105.67 9.34 105.81 9.35 105.90 9.39C105.98 9.44 106.06 9.52 106.15 9.62L109.33 13.64C109.38 13.71 109.42 13.75 109.48 13.78C109.54 13.80 109.61 13.82 109.68 13.82L109.75 13.82L110.29 13.82L110.66 13.82L110.66 13.54C110.66 13.38 110.57 13.30 110.39 13.29ZM105.90 8.81L104.30 8.81L104.30 4.48L105.99 4.48C106.88 4.48 107.55 4.66 108.01 5.00C108.47 5.33 108.70 5.87 108.70 6.57C108.70 6.92 108.64 7.21 108.51 7.49C108.39 7.77 108.19 7.99 107.95 8.19C107.72 8.39 107.42 8.55 107.07 8.65C106.72 8.75 106.33 8.81 105.90 8.81ZM120.05 3.92L118.86 3.92L118.86 4.19C118.86 4.34 118.96 4.42 119.14 4.44L119.28 4.44C119.35 4.44 119.45 4.45 119.59 4.45C119.73 4.45 119.88 4.47 120.05 4.47L120.05 13.26C119.88 13.26 119.73 13.27 119.59 13.27C119.45 13.27 119.35 13.29 119.28 13.29L119.14 13.29C118.96 13.30 118.87 13.38 118.87 13.54L118.87 13.82L120.05 13.82L125.99 13.82L125.99 13.22L125.99 11.76L125.64 11.76C125.44 11.76 125.36 11.89 125.34 12.11C125.34 12.14 125.33 12.19 125.33 12.29C125.33 12.39 125.33 12.53 125.31 12.74C125.30 12.95 125.29 13.09 125.29 13.22L120.76 13.22L120.76 9.09L124.71 9.09L124.71 8.51L120.76 8.51L120.76 4.51L125.29 4.51C125.31 5.12 125.34 5.50 125.34 5.63C125.36 5.85 125.44 5.96 125.64 5.96L125.99 5.96L125.99 4.51L125.99 3.92ZM146.13 3.92L144.94 3.92L144.94 4.19C144.94 4.34 145.04 4.42 145.22 4.44L145.36 4.44C145.43 4.44 145.53 4.45 145.67 4.45C145.81 4.45 145.96 4.47 146.13 4.47L146.13 13.26C145.96 13.26 145.81 13.27 145.67 13.27C145.53 13.27 145.43 13.29 145.36 13.29L145.22 13.29C145.04 13.30 144.96 13.38 144.96 13.54L144.96 13.82L146.13 13.82L152.07 13.82L152.07 13.22L152.07 11.76L151.72 11.76C151.52 11.76 151.44 11.89 151.42 12.11C151.42 12.14 151.41 12.19 151.41 12.29C151.41 12.39 151.41 12.53 151.40 12.74C151.38 12.95 151.37 13.09 151.37 13.22L146.85 13.22L146.85 9.09L150.79 9.09L150.79 8.51L146.85 8.51L146.85 4.51L151.37 4.51C151.40 5.12 151.42 5.50 151.42 5.63C151.44 5.85 151.52 5.96 151.72 5.96L152.07 5.96L152.07 4.51L152.07 3.92ZM169.48 3.92L168.85 3.92L167.64 3.92L167.64 4.19C167.64 4.34 167.73 4.42 167.92 4.44L168.06 4.44C168.13 4.44 168.24 4.45 168.38 4.45C168.52 4.45 168.69 4.47 168.85 4.47L168.85 12.22C168.85 12.35 168.85 12.49 168.87 12.63L162.46 4.05C162.41 3.99 162.39 3.95 162.34 3.93C162.30 3.92 162.26 3.91 162.19 3.91L161.84 3.91L160.65 3.91L160.65 4.19C160.65 4.34 160.75 4.42 160.93 4.44L161.07 4.44C161.14 4.44 161.24 4.45 161.38 4.45C161.52 4.45 161.67 4.47 161.84 4.47L161.84 13.26C161.67 13.26 161.52 13.27 161.38 13.27C161.24 13.27 161.14 13.29 161.07 13.29L160.93 13.29C160.75 13.30 160.65 13.38 160.65 13.54L160.65 13.82L161.84 13.82L162.46 13.82L163.67 13.82L163.67 13.54C163.67 13.38 163.58 13.30 163.39 13.29L163.25 13.29C163.18 13.29 163.06 13.27 162.92 13.27C162.78 13.27 162.62 13.26 162.46 13.26L162.46 5.49C162.46 5.36 162.46 5.22 162.44 5.08L168.88 13.68C168.95 13.78 169.02 13.82 169.13 13.82L169.48 13.82L169.48 4.47C169.65 4.47 169.79 4.45 169.93 4.45C170.07 4.45 170.18 4.44 170.25 4.44L170.38 4.44C170.56 4.42 170.66 4.34 170.66 4.19L170.66 3.92ZM184.34 9.32L184.34 9.72C184.34 9.76 184.37 9.80 184.39 9.83C184.42 9.86 184.46 9.87 184.52 9.87L186.42 9.87L186.42 12.54C186.20 12.67 185.98 12.78 185.77 12.88C185.56 12.98 185.32 13.08 185.08 13.15C184.84 13.22 184.58 13.27 184.30 13.30C184.02 13.33 183.71 13.34 183.37 13.34C182.76 13.34 182.20 13.24 181.69 13.03C181.19 12.82 180.75 12.53 180.39 12.15C180.03 11.77 179.75 11.30 179.55 10.74C179.35 10.18 179.24 9.56 179.24 8.86C179.24 8.18 179.35 7.56 179.55 7.01C179.75 6.47 180.03 5.99 180.39 5.61C180.75 5.24 181.20 4.94 181.72 4.73C182.24 4.52 182.81 4.42 183.46 4.42C184.63 4.42 185.57 4.58 186.26 4.90C186.30 5.81 186.33 6.31 186.33 6.41C186.34 6.64 186.44 6.75 186.63 6.75L186.97 6.75L186.97 4.51C186.54 4.31 185.98 4.14 185.28 4.00C184.58 3.86 183.99 3.81 183.48 3.81C182.73 3.81 182.04 3.92 181.43 4.16C180.81 4.40 180.29 4.75 179.86 5.18C179.42 5.61 179.10 6.15 178.86 6.78C178.63 7.39 178.51 8.09 178.51 8.86C178.51 9.63 178.63 10.32 178.86 10.95C179.10 11.58 179.42 12.10 179.84 12.54C180.26 12.99 180.78 13.33 181.37 13.57C181.96 13.80 182.60 13.93 183.32 13.93C183.74 13.93 184.11 13.90 184.46 13.86C184.81 13.80 185.14 13.73 185.44 13.65C185.75 13.55 186.03 13.44 186.30 13.30C186.56 13.16 186.82 13.01 187.07 12.84L187.07 9.32ZM198.28 4.44C198.46 4.42 198.55 4.34 198.55 4.19L198.55 3.91L197.37 3.91L196.66 3.91L195.47 3.91L195.47 4.19C195.47 4.34 195.57 4.42 195.75 4.44L195.89 4.44C195.96 4.44 196.06 4.45 196.20 4.45C196.34 4.45 196.49 4.47 196.66 4.47L196.66 13.26C196.49 13.26 196.34 13.27 196.20 13.27C196.06 13.27 195.96 13.29 195.89 13.29L195.75 13.29C195.57 13.30 195.47 13.38 195.47 13.54L195.47 13.82L196.66 13.82L197.37 13.82L198.55 13.82L198.55 13.54C198.55 13.38 198.46 13.30 198.28 13.29L198.14 13.29C198.07 13.29 197.97 13.27 197.83 13.27C197.69 13.27 197.54 13.26 197.37 13.26L197.37 4.47C197.54 4.47 197.69 4.45 197.83 4.45C197.97 4.45 198.07 4.44 198.14 4.44ZM215.73 3.92L215.10 3.92L213.88 3.92L213.88 4.19C213.88 4.34 213.98 4.42 214.16 4.44L214.30 4.44C214.37 4.44 214.48 4.45 214.62 4.45C214.76 4.45 214.93 4.47 215.10 4.47L215.10 12.22C215.10 12.35 215.10 12.49 215.11 12.63L208.70 4.05C208.66 3.99 208.63 3.95 208.59 3.93C208.54 3.92 208.50 3.91 208.43 3.91L208.08 3.91L206.89 3.91L206.89 4.19C206.89 4.34 206.99 4.42 207.17 4.44L207.31 4.44C207.38 4.44 207.48 4.45 207.62 4.45C207.76 4.45 207.91 4.47 208.08 4.47L208.08 13.26C207.91 13.26 207.76 13.27 207.62 13.27C207.48 13.27 207.38 13.29 207.31 13.29L207.17 13.29C206.99 13.30 206.89 13.38 206.89 13.54L206.89 13.82L208.08 13.82L208.70 13.82L209.92 13.82L209.92 13.54C209.92 13.38 209.82 13.30 209.64 13.29L209.50 13.29C209.43 13.29 209.30 13.27 209.16 13.27C209.02 13.27 208.87 13.26 208.70 13.26L208.70 5.49C208.70 5.36 208.70 5.22 208.68 5.08L215.12 13.68C215.19 13.78 215.26 13.82 215.38 13.82L215.73 13.82L215.73 4.47C215.89 4.47 216.03 4.45 216.17 4.45C216.31 4.45 216.43 4.44 216.50 4.44L216.62 4.44C216.80 4.42 216.90 4.34 216.90 4.19L216.90 3.92ZM226.13 3.92L224.94 3.92L224.94 4.19C224.94 4.34 225.04 4.42 225.22 4.44L225.36 4.44C225.43 4.44 225.53 4.45 225.67 4.45C225.81 4.45 225.96 4.47 226.13 4.47L226.13 13.26C225.96 13.26 225.81 13.27 225.67 13.27C225.53 13.27 225.43 13.29 225.36 13.29L225.22 13.29C225.04 13.30 224.95 13.38 224.95 13.54L224.95 13.82L226.13 13.82L232.06 13.82L232.06 13.22L232.06 11.76L231.71 11.76C231.52 11.76 231.43 11.89 231.42 12.11C231.42 12.14 231.41 12.19 231.41 12.29C231.41 12.39 231.41 12.53 231.39 12.74C231.38 12.95 231.36 13.09 231.36 13.22L226.84 13.22L226.84 9.09L230.79 9.09L230.79 8.51L226.84 8.51L226.84 4.51L231.36 4.51C231.39 5.12 231.42 5.50 231.42 5.63C231.43 5.85 231.52 5.96 231.71 5.96L232.06 5.96L232.06 4.51L232.06 3.92ZM241.84 3.92L240.65 3.92L240.65 4.19C240.65 4.34 240.74 4.42 240.93 4.44L241.07 4.44C241.14 4.44 241.23 4.45 241.37 4.45C241.51 4.45 241.67 4.47 241.84 4.47L241.84 13.26C241.67 13.26 241.51 13.27 241.37 13.27C241.23 13.27 241.14 13.29 241.07 13.29L240.93 13.29C240.74 13.30 240.66 13.38 240.66 13.54L240.66 13.82L241.84 13.82L247.77 13.82L247.77 13.22L247.77 11.76L247.42 11.76C247.23 11.76 247.14 11.89 247.13 12.11C247.13 12.14 247.11 12.19 247.11 12.29C247.11 12.39 247.11 12.53 247.10 12.74C247.09 12.95 247.07 13.09 247.07 13.22L242.55 13.22L242.55 9.09L246.50 9.09L246.50 8.51L242.55 8.51L242.55 4.51L247.07 4.51C247.10 5.12 247.13 5.50 247.13 5.63C247.14 5.85 247.23 5.96 247.42 5.96L247.77 5.96L247.77 4.51L247.77 3.92ZM264.35 13.29L264.25 13.29L264.07 13.29C263.98 13.29 263.90 13.27 263.82 13.27L260.85 9.53C260.76 9.42 260.65 9.32 260.54 9.25C260.97 9.21 261.37 9.11 261.72 8.96C262.07 8.81 262.35 8.61 262.60 8.37C262.84 8.13 263.03 7.85 263.16 7.55C263.28 7.24 263.35 6.89 263.35 6.51C263.35 5.66 263.07 5.03 262.51 4.58C261.95 4.14 261.10 3.92 259.95 3.92L257.54 3.92L256.37 3.92L256.37 4.19C256.37 4.34 256.45 4.42 256.63 4.44L256.77 4.44C256.84 4.44 256.94 4.45 257.08 4.45C257.22 4.45 257.38 4.47 257.54 4.47L257.54 13.26C257.38 13.26 257.22 13.27 257.08 13.27C256.94 13.27 256.84 13.29 256.77 13.29L256.63 13.29C256.45 13.30 256.35 13.38 256.35 13.54L256.35 13.82L257.54 13.82L258.26 13.82L259.43 13.82L259.43 13.54C259.43 13.38 259.34 13.30 259.15 13.29L259.01 13.29C258.94 13.29 258.85 13.27 258.71 13.27C258.57 13.27 258.43 13.26 258.26 13.26L258.26 9.34L259.43 9.34C259.63 9.34 259.77 9.35 259.85 9.39C259.94 9.44 260.02 9.52 260.11 9.62L263.28 13.64C263.34 13.71 263.38 13.75 263.44 13.78C263.49 13.80 263.56 13.82 263.63 13.82L263.70 13.82L264.25 13.82L264.61 13.82L264.61 13.54C264.61 13.38 264.53 13.30 264.35 13.29ZM259.85 8.81L258.26 8.81L258.26 4.48L259.95 4.48C260.83 4.48 261.51 4.66 261.97 5.00C262.43 5.33 262.65 5.87 262.65 6.57C262.65 6.92 262.60 7.21 262.47 7.49C262.35 7.77 262.15 7.99 261.91 8.19C261.67 8.39 261.38 8.55 261.03 8.65C260.68 8.75 260.29 8.81 259.85 8.81Z"></path></g></svg>