<svg data-v-423bf9ae="" xmlns="http://www.w3.org/2000/svg" viewBox="0 0 360.9954144527799 60" class="font"><!----><!----><!----><g data-v-423bf9ae="" id="a213d2fa-d428-4a2b-b77f-81926f9f3ece" fill="white" transform="matrix(5.529953722625812,0,0,5.529953722625812,-5.640549213189331,-14.377878674612468)"><path d="M7.95 13.34L8.78 13.34L8.78 3.08L7.71 3.08L7.71 10.71L2.76 3.08L1.02 3.08C1.04 3.16 1.22 3.98 1.22 4.00L1.22 13.27L2.28 13.27L2.28 4.66ZM12.59 3.98C12.59 3.51 12.19 3.12 11.73 3.12C11.27 3.12 10.89 3.51 10.89 3.98C10.89 4.44 11.27 4.83 11.73 4.83C12.21 4.83 12.59 4.45 12.59 3.98ZM11.17 13.27L12.33 13.27L12.33 6.31L11.00 6.31C11.02 6.40 11.17 7.11 11.17 7.14ZM19.57 12.75L19.04 11.87C18.45 12.28 18.07 12.49 17.35 12.49C15.93 12.49 15.37 10.84 15.37 9.67C15.37 8.57 15.95 7.06 17.28 7.06C17.96 7.06 18.33 7.22 18.84 7.67L19.47 6.86C18.94 6.45 18.13 6.15 17.46 6.15C15.33 6.15 14.13 7.77 14.13 9.80C14.13 11.59 15.33 13.45 17.28 13.45C18.26 13.45 18.75 13.26 19.57 12.75ZM24.23 13.27L29.82 13.27L29.82 12.31L25.54 12.31L25.54 3.08L24.04 3.08C24.05 3.16 24.23 3.98 24.23 4.00ZM36.43 12.67L35.91 11.83C35.45 12.22 34.71 12.47 34.10 12.47C32.73 12.47 32.07 11.02 32.07 9.83L32.07 9.69L35.85 9.69C36.41 9.69 36.57 9.28 36.57 8.79C36.57 7.17 35.48 6.15 33.87 6.15C31.82 6.15 30.84 8.05 30.84 9.87C30.84 11.86 31.99 13.45 34.08 13.45C34.92 13.45 35.77 13.20 36.43 12.67ZM35.08 8.82L32.16 8.82C32.31 7.95 33.03 7.03 33.98 7.03C34.83 7.03 35.32 7.73 35.32 8.53C35.32 8.74 35.31 8.82 35.08 8.82ZM42.98 13.40L44.21 13.24C43.90 12.73 43.78 11.86 43.78 11.27L43.78 2.60L42.43 2.60L42.63 3.43L42.63 6.78C42.15 6.34 41.51 6.16 40.88 6.16C38.78 6.16 37.77 7.95 37.77 9.86C37.77 11.61 38.70 13.45 40.66 13.45C41.45 13.45 42.22 13.08 42.71 12.45C42.76 12.77 42.84 13.09 42.98 13.40ZM42.63 9.16L42.63 11.51C42.22 11.97 41.65 12.43 41.01 12.43C39.52 12.43 39.00 11.05 39.00 9.77C39.00 8.54 39.44 7.11 40.91 7.11C42.13 7.11 42.63 8.05 42.63 9.16ZM48.71 13.45C50.78 13.45 51.86 11.70 51.86 9.80C51.86 7.90 50.78 6.15 48.71 6.15C46.68 6.15 45.57 7.92 45.57 9.80C45.57 11.69 46.65 13.45 48.71 13.45ZM48.71 12.57C47.35 12.57 46.80 10.91 46.80 9.80C46.80 8.61 47.26 7.03 48.71 7.03C50.13 7.03 50.62 8.62 50.62 9.80C50.62 10.99 50.16 12.57 48.71 12.57ZM60.17 12.98L59.93 12.25C59.86 12.28 59.30 12.45 59.28 12.45C59.01 12.45 58.97 12.25 58.97 11.91L58.97 6.31L57.62 6.31C57.64 6.38 57.81 7.11 57.81 7.14L57.81 10.64C57.81 11.70 56.92 12.42 55.90 12.42C54.84 12.42 54.74 11.42 54.74 10.60L54.74 6.31L53.40 6.31C53.41 6.38 53.58 7.11 53.58 7.14L53.58 10.98C53.58 12.42 54.17 13.45 55.71 13.45C56.50 13.45 57.30 13.01 57.85 12.45C57.93 12.98 58.25 13.40 58.83 13.40C59.28 13.40 59.77 13.13 60.17 12.98ZM64.97 13.29L66.30 13.29L63.94 9.59L66.09 6.31L64.96 6.31L63.35 8.72L61.82 6.31L60.49 6.31L62.66 9.72L60.34 13.29L61.49 13.29L63.25 10.58Z"></path></g><!----><!----></svg>