<?xml version="1.0" encoding="UTF-8"?><svg id="Layer_1" xmlns="http://www.w3.org/2000/svg" viewBox="0 0 507.18 507.18"><defs><style>.cls-1{fill:#edaa2b;}.cls-2{fill:#474e61;}</style></defs><circle class="cls-1" cx="253.59" cy="253.59" r="253.59"/><path class="cls-2" d="M249.91,248.79h-27.97v-27.97h27.97v27.97Zm32.03,0v-27.97h-27.97v27.97h27.97Zm-60,4.06v27.97h27.97v-27.97h-27.97Zm60,0h-27.97v27.97h27.97v-27.97ZM46.42,336.08h0c2.37,2.54,5.59,3.32,7.19,1.74l88.46-87.35-8.6-9.2-88.46,87.35c-1.6,1.58-.97,4.92,1.4,7.46Zm-8.78-9.4c.85,.91,2,1.19,2.58,.62l90.32-89.18-1.54-1.65-91.36,90.2h0Zm17.5,18.74h0l91.36-90.2-1.54-1.65-90.32,89.18c-.57,.57-.35,1.76,.5,2.67Zm-3.32,3.79l2.27-2.24-17.62-18.87-2.27,2.24-5.18,17.02,6.05,6.48,16.75-4.63Zm-25.12,8.47l7.13-2.54-6.09-6.52-2.76,7.22c-.14,.37,.03,.92,.43,1.34h0c.4,.42,.92,.62,1.29,.49Zm127.73-110.47c2.83-2.8,1.72-8.71-2.48-13.21l-2.24-2.39c-4.2-4.5-9.91-5.88-12.74-3.09l-2.16,2.14,17.46,18.69,2.16-2.14Zm-3.31,3.39l-17.52-18.76-3.32,3.28,17.52,18.76,3.32-3.28ZM296.48,62.09l23.12,22.84-36.13,36.58,207.18,204.64-31.4,31.79-10.7-10.57,7.21-7.3-1.97-1.95-7.21,7.3-9.31-9.2,10.84-10.97-1.99-1.96-10.84,10.97-8.99-8.88,7.21-7.3-1.99-1.96-7.21,7.3-9.3-9.18,7.21-7.3-1.99-1.96-7.21,7.3-9.31-9.2,7.21-7.29h0l-1.97-1.95-7.21,7.3-9.31-9.2,10.84-10.97h0l-1.99-1.96-10.84,10.97-8.99-8.88,7.21-7.29h0l-1.99-1.96-7.21,7.3-9.29-9.18,7.21-7.29h0l-1.99-1.96-7.21,7.3-9.31-9.19,7.21-7.29h0l-1.97-1.95-7.21,7.3-9.31-9.19,10.84-10.97h0l-1.99-1.96-10.84,10.97-8.99-8.88,7.21-7.3-1.99-1.96-7.21,7.3-9.3-9.18,7.21-7.3-1.99-1.96-7.21,7.3-9.31-9.2,7.21-7.3-1.97-1.95-7.21,7.3-9.31-9.2,10.84-10.97-1.99-1.96-10.84,10.97-9.3-9.18,7.21-7.3-1.99-1.96-7.21,7.3-9.3-9.18,7.21-7.3-1.99-1.96-7.21,7.3-9.31-9.2,7.21-7.3-1.97-1.95-7.21,7.3-9.31-9.2,10.84-10.97-1.99-1.96-10.84,10.97-3.56-3.52-3.88,3.93-7.35-7.26-2.01,2.03,7.35,7.26-9.15,9.27-7.35-7.26-2.01,2.03,7.35,7.26-9.18,9.3-7.35-7.26-1.99,2.02,7.35,7.26-9.15,9.27-11.03-10.9-2.01,2.03,11.03,10.9-9.76,9.88-7.35-7.26-2,2.03,7.35,7.26-9.15,9.27-7.35-7.26-2.01,2.03,7.35,7.26-9.18,9.3-7.35-7.26-2.01,2.03,7.35,7.26-9.14,9.25-11.03-10.9-2.01,2.03,11.03,10.9-1.98,2-23.12-22.84L296.48,62.09Zm-21.65,63.61c1.76-1.78,1.76-4.63-.02-6.39s-4.65-1.74-6.4,.04c-1.76,1.78-1.74,4.65,.04,6.4s4.63,1.73,6.39-.05Zm-13.15-12.99c1.76-1.78,1.74-4.65-.04-6.4-1.77-1.74-4.63-1.73-6.39,.05s-1.74,4.65,.02,6.39,4.65,1.74,6.4-.04Zm-6.29,32.67c1.74-1.77,1.74-4.62-.04-6.37-1.78-1.76-4.65-1.74-6.39,.02-1.76,1.78-1.74,4.65,.04,6.4s4.63,1.73,6.39-.05Zm-13.15-12.99c1.74-1.77,1.73-4.63-.05-6.39s-4.63-1.73-6.37,.04-1.74,4.65,.02,6.39,4.65,1.74,6.4-.04Z"/></svg>