<svg version="1.2" baseProfile="tiny-ps" xmlns="http://www.w3.org/2000/svg" viewBox="0 0 397 452" width="397" height="452">
	<title>stock-vector-construction-logo-design-with-letter-f-shape-icon-initial-letter-f-on-building-symbol-1596364402</title>
	<style>
		tspan { white-space:pre }
		.shp0 { fill: #ffffff } 
		.shp1 { fill: #d7d8d9 } 
		.shp2 { fill: #5d5d5e } 
	</style>
	<path id="Shape 1" class="shp0" d="M26 146" />
	<path id="Shape 2" class="shp1" d="M312 313L25.06 148L25 278L311.6 445.02" />
	<path id="Shape 3" class="shp2" d="M140.99 148.51L311 50L311 115L197 182L140.99 148.51Z" />
	<path id="Shape 4" class="shp2" d="M254 214L368 148L369 214L311 247L254 214Z" />
	<path id="Shape 5" class="shp2" d="M312 312L368 279L369 412L312 445" />
	<path id="Layer 7" class="shp0" d="M141 148L311 49L263.81 8.14L26 148L311.97 312.52L367.95 279.54L197 182" />
	<path id="Shape 7" class="shp0" d="M268 179" />
	<path id="Layer 8" class="shp0" d="M194.94 183.38L312 115L368 148L252 215" />
</svg>