<?xml version="1.0" encoding="UTF-8"?><svg id="Layer_1" xmlns="http://www.w3.org/2000/svg" viewBox="0 0 507.18 507.18"><defs><style>.cls-1{fill:#edaa2b;}.cls-2{fill:#474e61;}</style></defs><circle class="cls-1" cx="253.59" cy="253.59" r="253.59"/><g><rect class="cls-2" x="144.77" y="146.06" width="12.13" height="297.52"/><path class="cls-2" d="M85.71,87.64v52.84h83.6V443.57h72.64v-7.43h-16.67v-4.54h16.67v-21.24h-16.67v-4.54h16.67v-21.28h-16.67v-4.5h16.67v-21.28h-25.08v-4.54h25.08v-20.54h-16.67v-4.54h16.67v-21.24h-16.67v-4.54h16.67v-21.28h-16.67v-4.5h16.67v-21.28h-25.08v-4.54h25.08v-21.24h-16.67v-4.54h16.67v-21.24h-16.67v-4.54h16.67v-21.28h-16.67v-4.5h16.67v-21.28h-25.08v-4.54h25.08v-8.13h8.97v-16.81h4.64v16.81h21.18v-16.81h4.64v16.81h21.24v-16.81h4.61v16.81h21.18v-25.21h4.64v25.21h22.59v-16.81h4.64v16.81h21.18v-16.81h4.64v16.81h21.24v-16.81h4.64v16.81h21.14v-25.21h4.64v25.21h4.57v-52.84H85.71Zm98.32,47.63c-4.07,0-7.36-3.26-7.36-7.33s3.29-7.36,7.36-7.36,7.36,3.29,7.36,7.36-3.29,7.33-7.36,7.33Zm0-30.05c-4.07,0-7.36-3.29-7.36-7.36s3.29-7.33,7.36-7.33,7.36,3.29,7.36,7.33-3.29,7.36-7.36,7.36Zm44.98,30.05c-4.03,0-7.33-3.26-7.33-7.33s3.29-7.36,7.33-7.36,7.36,3.29,7.36,7.36-3.29,7.33-7.36,7.33Zm0-30.05c-4.03,0-7.33-3.29-7.33-7.36s3.29-7.33,7.33-7.33,7.36,3.29,7.36,7.33-3.29,7.36-7.36,7.36Z"/><rect class="cls-2" x="90.65" y="146.06" width="7.19" height="297.52"/><rect class="cls-2" x="105.47" y="146.06" width="8.91" height="297.52"/><rect class="cls-2" x="123.63" y="146.06" width="10.22" height="297.52"/></g></svg>