<?xml version="1.0" encoding="UTF-8"?><svg id="Layer_1" xmlns="http://www.w3.org/2000/svg" viewBox="0 0 1729.81 300.05"><defs><style>.cls-1{fill:none;}.cls-2{fill:#e92629;letter-spacing:-.02em;}.cls-3,.cls-4{fill:#fff;}.cls-5{fill:#424242;}.cls-6{fill:#29a8e0;}.cls-4{font-family:FiraCode-Light, 'Fira Code';font-size:50.16px;letter-spacing:.1em;}.cls-7{font-family:Spartan-SemiBold, Spartan;font-size:86.49px;}</style></defs><g><g><g><rect class="cls-5" x="1022.67" y="59.46" width="7.05" height="7.05"/><rect class="cls-5" x="1031.61" y="59.46" width="7.05" height="7.05"/><rect class="cls-5" x="1022.67" y="68.41" width="7.05" height="7.05"/><rect class="cls-5" x="1031.61" y="68.41" width="7.05" height="7.05"/></g><polygon class="cls-5" points="1030.39 9.26 962.04 87.59 977.36 87.59 1030.39 26.82 1083.42 87.59 1098.73 87.59 1030.39 9.26"/><g><polygon class="cls-6" points="804.07 87.59 715.3 0 626.53 87.59 646.17 87.59 715.3 19.38 784.43 87.59 804.07 87.59"/><g><rect class="cls-5" x="705.03" y="58.29" width="8.54" height="8.54"/><rect class="cls-5" x="715.86" y="58.29" width="8.54" height="8.54"/><rect class="cls-5" x="705.03" y="69.12" width="8.54" height="8.54"/><rect class="cls-5" x="715.86" y="69.12" width="8.54" height="8.54"/></g><polygon class="cls-6" points="888.77 33.34 719.24 .69 809.17 87.59 947.45 87.59 888.77 33.34"/></g><polygon class="cls-5" points="899.82 33.75 958.48 87.59 1026.46 9.26 899.82 33.75"/></g><polygon class="cls-5" points="715.3 34.04 773.61 84.75 715.3 27.21 715.3 27.21 715.3 27.21 715.3 27.21 715.3 27.21 656.98 84.75 715.3 34.04"/><polygon class="cls-5" points="1030.39 38.8 989.31 83.35 1030.39 32.8 1030.39 32.8 1030.39 32.8 1030.39 32.8 1030.39 32.8 1071.47 83.35 1030.39 38.8"/></g><text transform="translate(623.64 163.93)"><tspan class="cls-7"><tspan class="cls-1" x="0" y="0">T</tspan><tspan class="cls-2" x="55.74" y="0"> </tspan><tspan class="cls-3" x="76.93" y="0">SQUARE</tspan></tspan><tspan class="cls-4"><tspan x="46.4" y="60.2">RENOVATIONS</tspan></tspan></text><g><rect class="cls-3" x="638.75" y="104.28" width="2.51" height="61.57"/><path class="cls-3" d="M626.53,92.19v10.93h17.3v62.72h15.03v-1.54h-3.45v-.94h3.45v-4.4h-3.45v-.94h3.45v-4.4h-3.45v-.93h3.45v-4.4h-5.19v-.94h5.19v-4.25h-3.45v-.94h3.45v-4.4h-3.45v-.94h3.45v-4.4h-3.45v-.93h3.45v-4.4h-5.19v-.94h5.19v-4.4h-3.45v-.94h3.45v-4.4h-3.45v-.94h3.45v-4.4h-3.45v-.93h3.45v-4.4h-5.19v-.94h5.19v-1.68h1.86v-3.48h.96v3.48h4.38v-3.48h.96v3.48h4.4v-3.48h.95v3.48h4.38v-5.22h.96v5.22h4.67v-3.48h.96v3.48h4.38v-3.48h.96v3.48h4.4v-3.48h.96v3.48h4.38v-5.22h.96v5.22h.95v-10.93h-73.8Zm20.35,9.86c-.84,0-1.52-.67-1.52-1.52s.68-1.52,1.52-1.52,1.52,.68,1.52,1.52-.68,1.52-1.52,1.52Zm0-6.22c-.84,0-1.52-.68-1.52-1.52s.68-1.52,1.52-1.52,1.52,.68,1.52,1.52-.68,1.52-1.52,1.52Zm9.31,6.22c-.83,0-1.52-.67-1.52-1.52s.68-1.52,1.52-1.52,1.52,.68,1.52,1.52-.68,1.52-1.52,1.52Zm0-6.22c-.83,0-1.52-.68-1.52-1.52s.68-1.52,1.52-1.52,1.52,.68,1.52,1.52-.68,1.52-1.52,1.52Z"/><rect class="cls-3" x="627.55" y="104.28" width="1.49" height="61.57"/><rect class="cls-3" x="630.62" y="104.28" width="1.84" height="61.57"/><rect class="cls-3" x="634.38" y="104.28" width="2.11" height="61.57"/></g></svg>