<?xml version="1.0" encoding="UTF-8"?><svg id="Layer_1" xmlns="http://www.w3.org/2000/svg" viewBox="0 0 530.45 529.45"><defs><style>.cls-1{fill:#fff;}</style></defs><rect class="cls-1" x="87.85" y="86.9" width="18.05" height="442.55"/><path class="cls-1" d="M0,0V78.6H124.35v450.85h108.05v-11.05h-24.8v-6.75h24.8v-31.6h-24.8v-6.75h24.8v-31.65h-24.8v-6.7h24.8v-31.65h-37.3v-6.75h37.3v-30.55h-24.8v-6.75h24.8v-31.6h-24.8v-6.75h24.8v-31.65h-24.8v-6.7h24.8v-31.65h-37.3v-6.75h37.3v-31.6h-24.8v-6.75h24.8v-31.6h-24.8v-6.75h24.8v-31.65h-24.8v-6.7h24.8v-31.65h-37.3v-6.75h37.3v-12.1h13.35v-25h6.9v25h31.5v-25h6.9v25h31.6v-25h6.85v25h31.5V41.1h6.9v37.5h33.6v-25h6.9v25h31.5v-25h6.9v25h31.6v-25h6.9v25h31.45V41.1h6.9v37.5h6.8V0H0ZM146.25,70.85c-6.05,0-10.95-4.85-10.95-10.9s4.9-10.95,10.95-10.95,10.95,4.9,10.95,10.95-4.9,10.9-10.95,10.9Zm0-44.7c-6.05,0-10.95-4.9-10.95-10.95s4.9-10.9,10.95-10.9,10.95,4.9,10.95,10.9-4.9,10.95-10.95,10.95Zm66.9,44.7c-6,0-10.9-4.85-10.9-10.9s4.9-10.95,10.9-10.95,10.95,4.9,10.95,10.95-4.9,10.9-10.95,10.9Zm0-44.7c-6,0-10.9-4.9-10.9-10.95s4.9-10.9,10.9-10.9,10.95,4.9,10.95,10.9-4.9,10.95-10.95,10.95Z"/><rect class="cls-1" x="7.35" y="86.9" width="10.7" height="442.55"/><rect class="cls-1" x="29.4" y="86.9" width="13.25" height="442.55"/><rect class="cls-1" x="56.4" y="86.9" width="15.2" height="442.55"/></svg>