<?xml version="1.0" encoding="utf-8"?>
<!-- Generator: Adobe Illustrator 26.3.1, SVG Export Plug-In . SVG Version: 6.00 Build 0)  -->
<svg version="1.1" id="Layer_1" xmlns="http://www.w3.org/2000/svg" xmlns:xlink="http://www.w3.org/1999/xlink" x="0px" y="0px"
	 viewBox="0 0 512 384" style="enable-background:new 0 0 512 384;" xml:space="preserve">
<style type="text/css">
	.st0{fill:none;}
	.st1{fill:#231F20;}
	.st2{font-family:'Spartan-SemiBold';}
	.st3{font-size:72px;}
	.st4{font-family:'FiraCode-Light';}
	.st5{font-size:43px;}
	.st6{letter-spacing:4;}
	.st7{fill:#424242;}
	.st8{fill:#E9B542;}
	.st9{fill:#29A8E0;}
	.st10{fill:#221F1F;}
</style>
<g>
	<rect x="-588.65" y="152.44" class="st0" width="1729.81" height="210.63"/>
	<text transform="matrix(1 0 0 1 107.4369 214.4683)"><tspan x="0" y="0" class="st1 st2 st3">SQUARE </tspan><tspan x="1.79" y="35" class="st1 st4 st5 st6">RENOVATIONS</tspan></text>
	<g id="XMLID_782_">
		<g id="XMLID_1017_">
			<g id="XMLID_1029_">
				<rect id="XMLID_1033_" x="395.85" y="135.86" class="st7" width="3.99" height="3.99"/>
				<rect id="XMLID_1032_" x="400.91" y="135.86" class="st7" width="3.99" height="3.99"/>
				<rect id="XMLID_1031_" x="395.85" y="140.91" class="st7" width="3.99" height="3.99"/>
				<rect id="XMLID_1030_" x="400.91" y="140.91" class="st7" width="3.99" height="3.99"/>
			</g>
			<polygon id="XMLID_1028_" class="st8" points="400.22,107.48 361.59,151.75 370.25,151.75 400.22,117.4 430.19,151.75 
				438.85,151.75 			"/>
			<g id="XMLID_1019_">
				<g id="XMLID_1020_">
					<polygon id="XMLID_1027_" class="st9" points="272.3,151.75 222.13,102.25 171.96,151.75 183.06,151.75 222.13,113.2 
						261.2,151.75 					"/>
					<g id="XMLID_1022_">
						<rect id="XMLID_1026_" x="216.32" y="135.19" class="st7" width="4.82" height="4.82"/>
						<rect id="XMLID_1025_" x="222.45" y="135.19" class="st7" width="4.82" height="4.82"/>
						<rect id="XMLID_1024_" x="216.32" y="141.31" class="st7" width="4.82" height="4.82"/>
						<rect id="XMLID_1023_" x="222.45" y="141.31" class="st7" width="4.82" height="4.82"/>
					</g>
					<polygon id="XMLID_8_" class="st9" points="320.18,121.09 224.36,102.64 275.19,151.75 353.34,151.75 					"/>
				</g>
			</g>
			<polygon id="XMLID_1018_" class="st8" points="326.42,121.32 359.58,151.75 398,107.48 			"/>
		</g>
		<polygon id="XMLID_784_" class="st7" points="222.13,121.49 255.09,150.15 222.13,117.63 222.13,117.63 222.13,117.63 
			222.13,117.63 222.13,117.63 189.17,150.15 		"/>
		<polygon id="XMLID_781_" class="st7" points="400.22,124.18 377,149.35 400.22,120.79 400.22,120.79 400.22,120.79 400.22,120.79 
			400.22,120.79 423.44,149.35 		"/>
	</g>
	<g>
		<rect x="75.66" y="153.45" class="st10" width="3.93" height="96.29"/>
		<path class="st10" d="M56.54,134.54v17.1H83.6v98.1h23.51v-2.4h-5.4v-1.47h5.4v-6.88h-5.4v-1.47h5.4v-6.89h-5.4v-1.46h5.4v-6.89
			h-8.12v-1.47h8.12v-6.65h-5.4v-1.47h5.4v-6.88h-5.4v-1.47h5.4v-6.89h-5.4v-1.46h5.4v-6.89h-8.12v-1.47h8.12v-6.88h-5.4v-1.47h5.4
			v-6.88h-5.4v-1.47h5.4v-6.89h-5.4v-1.46h5.4v-6.89h-8.12v-1.47h8.12v-2.63h2.9v-5.44h1.5v5.44h6.85v-5.44h1.5v5.44h6.88v-5.44
			h1.49v5.44h6.85v-8.16h1.5v8.16h7.31v-5.44h1.5v5.44h6.85v-5.44h1.5v5.44h6.88v-5.44h1.5v5.44h6.84v-8.16h1.5v8.16h1.48v-17.1
			H56.54z M88.36,149.96c-1.32,0-2.38-1.06-2.38-2.37c0-1.32,1.07-2.38,2.38-2.38c1.32,0,2.38,1.07,2.38,2.38
			C90.75,148.9,89.68,149.96,88.36,149.96z M88.36,140.23c-1.32,0-2.38-1.07-2.38-2.38c0-1.31,1.07-2.37,2.38-2.37
			c1.32,0,2.38,1.07,2.38,2.37C90.75,139.17,89.68,140.23,88.36,140.23z M102.92,149.96c-1.31,0-2.37-1.06-2.37-2.37
			c0-1.32,1.07-2.38,2.37-2.38c1.32,0,2.38,1.07,2.38,2.38C105.3,148.9,104.24,149.96,102.92,149.96z M102.92,140.23
			c-1.31,0-2.37-1.07-2.37-2.38c0-1.31,1.07-2.37,2.37-2.37c1.32,0,2.38,1.07,2.38,2.37C105.3,139.17,104.24,140.23,102.92,140.23z"
			/>
		<rect x="58.14" y="153.45" class="st10" width="2.33" height="96.29"/>
		<rect x="62.94" y="153.45" class="st10" width="2.88" height="96.29"/>
		<rect x="68.82" y="153.45" class="st10" width="3.31" height="96.29"/>
	</g>
</g>
</svg>
