<svg enable-background="new 0 0 1126.24 874.51" viewBox="0 0 1126.24 874.51" xmlns="http://www.w3.org/2000/svg"><path d="m544.06 451.51h-67.65v-67.65h67.65zm77.45 0v-67.65h-67.65v67.65zm-145.1 9.81v67.65h67.65v-67.65zm145.1 0h-67.65v67.65h67.65zm-569.56 201.28c5.74 6.15 13.53 8.03 17.39 4.21l213.93-211.23-20.79-22.25-213.92 211.23c-3.87 3.82-2.35 11.89 3.39 18.04zm-21.24-22.74c2.06 2.2 4.85 2.88 6.23 1.51l218.43-215.67-3.72-3.99zm42.33 45.32 220.94-218.14-3.72-3.99-218.43 215.67c-1.39 1.36-.84 4.26 1.21 6.46zm-8.03 9.15 5.48-5.41-42.62-45.62-5.48 5.41-12.53 41.16 14.64 15.67zm-60.74 20.47 17.24-6.15-14.72-15.75-6.67 17.47c-.34.9.08 2.22 1.03 3.25.96 1.02 2.23 1.5 3.12 1.18zm308.9-267.16c6.85-6.76 4.16-21.07-6.01-31.95l-5.41-5.79c-10.17-10.88-23.96-14.22-30.81-7.46l-5.23 5.17 42.22 45.2zm-8.01 8.21-42.37-45.36-8.04 7.94 42.37 45.36zm351.51-455.85 55.92 55.23-87.38 88.47 501.03 494.89-75.93 76.87-25.88-25.56 17.43-17.64-4.77-4.71-17.43 17.64-22.52-22.24 26.21-26.54-4.8-4.74-26.21 26.54-21.73-21.47 17.43-17.64-4.8-4.74-17.44 17.64-22.48-22.21 17.43-17.64-4.8-4.74-17.43 17.64-22.52-22.24 17.43-17.64-4.77-4.71-17.43 17.64-22.52-22.24 26.21-26.53-4.8-4.74-26.21 26.54-21.73-21.47 17.43-17.66h-.01l-4.8-4.74-17.43 17.64-22.48-22.2 17.43-17.64-.01-.01-4.8-4.74-17.43 17.64-22.51-22.24 17.43-17.64-.01-.01-4.77-4.71-17.42 17.65-22.51-22.24 26.21-26.53-.01-.01-4.8-4.74-26.21 26.54-21.73-21.47 17.43-17.64-4.8-4.74-17.43 17.64-22.48-22.21 17.43-17.64-4.8-4.74-17.43 17.64-22.52-22.24 17.43-17.64-4.77-4.71-17.43 17.64-22.52-22.24 26.21-26.54-4.8-4.74-26.21 26.54-22.48-22.21 17.42-17.66-4.8-4.74-17.43 17.64-22.48-22.21 17.43-17.64-4.8-4.74-17.43 17.64-22.52-22.24 17.43-17.64-4.77-4.71-17.43 17.64-22.52-22.24 26.21-26.54-4.8-4.74-26.21 26.54-8.61-8.5-9.38 9.5-17.79-17.57-4.85 4.91 17.79 17.57-22.14 22.41-17.79-17.57-4.85 4.91 17.79 17.57-22.21 22.48-17.79-17.57-4.81 4.87 17.79 17.57-22.14 22.41-26.68-26.35-4.85 4.91 26.68 26.35-23.61 23.91-17.79-17.57-4.85 4.91 17.79 17.57-22.14 22.41-17.79-17.57-4.85 4.91 17.79 17.57-22.19 22.48-17.79-17.57-4.85 4.91 17.79 17.57-22.1 22.38-26.68-26.35-4.85 4.91 26.68 26.35-4.78 4.84-55.92-55.23zm-52.37 153.84c4.25-4.3 4.24-11.2-.06-15.45s-11.23-4.21-15.49.1c-4.25 4.3-4.21 11.23.1 15.49 4.31 4.24 11.2 4.16 15.45-.14zm-31.8-31.41c4.25-4.3 4.21-11.23-.1-15.49-4.27-4.22-11.2-4.17-15.45.13s-4.21 11.23.06 15.45c4.31 4.25 11.24 4.21 15.49-.09zm-15.21 79.01c4.22-4.27 4.21-11.16-.1-15.41-4.3-4.25-11.23-4.21-15.45.06-4.25 4.3-4.21 11.23.1 15.49 4.3 4.24 11.2 4.16 15.45-.14zm-31.8-31.42c4.22-4.27 4.17-11.2-.13-15.45-4.27-4.22-11.2-4.17-15.41.09-4.25 4.3-4.21 11.23.06 15.45 4.3 4.26 11.23 4.22 15.48-.09z" fill="#fff"/><path d="m24.55 874.51-8.3-7.81h1077.5l8.29 7.81z" fill="none"/></svg>