<?xml version="1.0" encoding="UTF-8"?><svg id="Layer_1" xmlns="http://www.w3.org/2000/svg" xmlns:xlink="http://www.w3.org/1999/xlink" viewBox="0 0 1294.23 932.03"><defs><style>.cls-1{fill:url(#linear-gradient);}.cls-2{letter-spacing:.06em;}.cls-3{fill:#808285;font-family:UnicaOne-Regular, 'Unica One';font-size:125px;}.cls-3,.cls-4,.cls-5{isolation:isolate;}.cls-6{letter-spacing:.15em;}.cls-7{letter-spacing:.16em;}.cls-4{fill:#939598;font-family:Oxygen-Light, Oxygen;font-size:50px;}.cls-8{letter-spacing:.16em;}.cls-9{letter-spacing:.16em;}.cls-10{letter-spacing:.02em;}.cls-11{fill:url(#radial-gradient);}.cls-12{letter-spacing:.08em;}.cls-13{letter-spacing:-.15em;}.cls-14{letter-spacing:.15em;}</style><linearGradient id="linear-gradient" x1="654.65" y1="-.95" x2="654.65" y2="718.93" gradientTransform="translate(-5.63 9.53) rotate(-.65)" gradientUnits="userSpaceOnUse"><stop offset=".14" stop-color="#adacaf"/><stop offset=".72" stop-color="#67686a"/></linearGradient><radialGradient id="radial-gradient" cx="652.64" cy="870.6" fx="652.64" fy="870.6" r="383.9" gradientTransform="matrix(1, 0, 0, 1, 0, 0)" gradientUnits="userSpaceOnUse"><stop offset="0" stop-color="#adacaf"/><stop offset="1" stop-color="#67686a"/></radialGradient></defs><path class="cls-1" d="M637.56,451.51h-67.65v-67.65h67.65v67.65Zm77.45,0v-67.65h-67.65v67.65h67.65Zm-145.1,9.81v67.65h67.65v-67.65h-67.65Zm145.1,0h-67.65v67.65h67.65v-67.65ZM145.45,662.6h0c5.74,6.15,13.53,8.03,17.39,4.21l213.93-211.23-20.79-22.25-213.93,211.23c-3.87,3.82-2.35,11.89,3.39,18.04Zm-21.24-22.74c2.06,2.2,4.85,2.88,6.23,1.51l218.43-215.67-3.72-3.99-220.94,218.14h0Zm42.33,45.32h0l220.94-218.14-3.72-3.99-218.43,215.67c-1.39,1.37-.84,4.26,1.22,6.46Zm-8.04,9.15l5.48-5.41-42.62-45.63-5.48,5.41-12.53,41.16,14.64,15.67,40.51-11.21Zm-60.74,20.47l17.24-6.15-14.72-15.76-6.67,17.47c-.34,.9,.08,2.22,1.03,3.25h0c.96,1.02,2.22,1.51,3.11,1.19ZM406.67,447.64c6.85-6.76,4.16-21.07-6.01-31.95l-5.41-5.79c-10.17-10.88-23.96-14.22-30.81-7.46l-5.23,5.17,42.22,45.2,5.23-5.17Zm-8.01,8.21l-42.37-45.36-8.04,7.94,42.37,45.36,8.04-7.94ZM750.17,0l55.92,55.23-87.38,88.47,501.03,494.89-75.93,76.87-25.88-25.56,17.43-17.64-4.77-4.71-17.43,17.64-22.52-22.24,26.21-26.54-4.8-4.74-26.21,26.54-21.73-21.47,17.43-17.64-4.8-4.74-17.43,17.64-22.48-22.21,17.43-17.64-4.8-4.74-17.43,17.64-22.52-22.24,17.43-17.64h0l-4.77-4.71-17.43,17.64-22.52-22.24,26.21-26.53h0l-4.8-4.74-26.21,26.54-21.73-21.47,17.43-17.64h0l-4.8-4.75-17.43,17.64-22.48-22.2,17.43-17.64h0l-4.8-4.75-17.43,17.64-22.51-22.24,17.43-17.64h0l-4.77-4.72-17.43,17.64-22.51-22.24,26.21-26.53h0l-4.8-4.75-26.21,26.54-21.73-21.47,17.43-17.64-4.8-4.74-17.43,17.64-22.48-22.21,17.43-17.64-4.8-4.74-17.43,17.64-22.52-22.24,17.43-17.64-4.77-4.71-17.43,17.64-22.52-22.24,26.21-26.54-4.8-4.74-26.21,26.54-22.48-22.21,17.43-17.64-4.8-4.74-17.43,17.64-22.48-22.21,17.43-17.64-4.8-4.74-17.43,17.64-22.52-22.24,17.43-17.64-4.77-4.71-17.43,17.64-22.52-22.24,26.21-26.54-4.8-4.74-26.21,26.54-8.61-8.5-9.38,9.5-17.79-17.57-4.85,4.91,17.79,17.57-22.14,22.41-17.79-17.57-4.85,4.91,17.79,17.57-22.21,22.48-17.79-17.57-4.81,4.87,17.79,17.57-22.14,22.41-26.68-26.35-4.85,4.91,26.68,26.35-23.61,23.91-17.79-17.57-4.85,4.91,17.79,17.57-22.14,22.41-17.79-17.57-4.85,4.91,17.79,17.57-22.21,22.48-17.79-17.57-4.85,4.91,17.79,17.57-22.1,22.38-26.68-26.35-4.85,4.91,26.68,26.35-4.78,4.84-55.92-55.23L750.17,0Zm-52.37,153.84c4.25-4.3,4.24-11.2-.06-15.45-4.3-4.25-11.23-4.21-15.49,.1s-4.21,11.23,.1,15.49c4.3,4.25,11.2,4.17,15.45-.13Zm-31.8-31.41c4.25-4.3,4.21-11.23-.1-15.49-4.27-4.22-11.2-4.17-15.45,.13s-4.21,11.23,.06,15.45c4.3,4.25,11.23,4.21,15.49-.1Zm-15.21,79.01c4.22-4.27,4.21-11.16-.1-15.41s-11.23-4.21-15.45,.06c-4.25,4.3-4.21,11.23,.1,15.49,4.3,4.25,11.2,4.17,15.45-.13Zm-31.8-31.41c4.22-4.27,4.17-11.2-.13-15.45s-11.2-4.17-15.41,.09c-4.25,4.3-4.21,11.23,.06,15.45,4.3,4.25,11.23,4.21,15.49-.1Z"/><g class="cls-5" transform="matrix(1 0 0 1 107.4369 214.4683)"><text class="cls-3" transform="translate(0 844)"><tspan class="cls-12" x="0" y="0">T</tspan><tspan class="cls-13" x="59.12" y="0"> </tspan><tspan class="cls-12" x="69.12" y="0">SQUARE RENO</tspan><tspan class="cls-2" x="828.74" y="0">V</tspan><tspan class="cls-10" x="896.49" y="0">A</tspan><tspan class="cls-12" x="959.23" y="0">TIONS</tspan></text><text class="cls-4" transform="translate(320.2 915.65)"><tspan class="cls-6" x="0" y="0">W</tspan><tspan class="cls-9" x="55.97" y="0">e </tspan><tspan class="cls-7" x="109.86" y="0">c</tspan><tspan class="cls-14" x="141.27" y="0">o</tspan><tspan class="cls-8" x="177.84" y="0">ver every angle.</tspan></text></g><polygon class="cls-11" points="118.04 874.51 109.75 866.7 1187.24 866.7 1195.54 874.51 118.04 874.51"/></svg>